# xmcd CD database file generated by Grip 2.96
# 
# Track frame offsets:
#       150
#       18737
#       34787
#       54412
#       72050
#       88087
#       101212
#       135287
#       146362
#       166200
#       171812
#       198462
# 
# Disc length: 3087 seconds
# 
# Revision: 0
# Processed by: cddbd v1.4PL0 Copyright (c) Steve Scherf et al.
# Submitted via: Grip 2.96
# 
DISCID=9f0c0d0c
DTITLE=The Juke - Live at the montreux jazz festival
DYEAR=1900
DGENRE=
TTITLE0=Someday you're gonna treat me right
TTITLE1=Take it easy
TTITLE2=One for Little Walter
TTITLE3=You and Me
TTITLE4=Red Light Green Light
TTITLE5=Blowers don't suck
TTITLE6=Harp Attack
TTITLE7=Be sharp
TTITLE8=Why keep fit
TTITLE9=Blues Rap
TTITLE10=She - Cargo Blues
TTITLE11=Try it tight sometime
EXTD=
EXTT0=
EXTT1=
EXTT2=
EXTT3=
EXTT4=
EXTT5=
EXTT6=
EXTT7=
EXTT8=
EXTT9=
EXTT10=
EXTT11=
PLAYORDER=
